Coordinates
version=1
nRows=8
nColumns=40
inDegrees=yes

Units are S.I. units (second, meters, Newtons, ...)
Angles are in degrees.

endheader
time	pelvis_tilt	pelvis_list	pelvis_rotation	pelvis_tx	pelvis_ty	pelvis_tz	hip_flexion_r	hip_adduction_r	hip_rotation_r	knee_angle_r	knee_angle_r_beta	ankle_angle_r	subtalar_angle_r	mtp_angle_r	hip_flexion_l	hip_adduction_l	hip_rotation_l	knee_angle_l	knee_angle_l_beta	ankle_angle_l	subtalar_angle_l	mtp_angle_l	lumbar_extension	lumbar_bending	lumbar_rotation	arm_flex_r	arm_add_r	arm_rot_r	elbow_flex_r	pro_sup_r	wrist_flex_r	wrist_dev_r	arm_flex_l	arm_add_l	arm_rot_l	elbow_flex_l	pro_sup_l	wrist_flex_l	wrist_dev_l
      0.61000000	     -2.04035306	     -3.25946116	      6.63057133	     -0.23953045	      0.88605240	     -1.44700107	     17.59298731	      3.99266172	    -15.30619536	    -26.59249075	     -0.46412652	      7.64187900	     -8.23724627	      5.61430933	     13.44628622	      9.33035642	      4.03576706	    -67.26444815	     -1.17398609	    -14.69297776	     17.93013134	     19.39070868	     -1.75910284	      3.51727321	     -5.78302168	     -6.98394232	     -8.28266563	     -9.63528800	     19.08624950	     89.95437384	      0.00000000	      0.00000000	     -1.29514858	     10.11660567	     21.69738083	     48.47418086	     89.95437384	      0.00000000	      0.00000000
      0.62000000	     -1.79401505	     -3.13682591	      6.14373124	     -0.22732224	      0.88759932	     -1.44596617	     16.12730418	      4.17914390	    -15.04401496	    -26.02301737	     -0.45418733	      8.13310528	     -7.57654124	      5.30563088	     14.67588979	      9.27823709	      4.61417929	    -68.30702754	     -1.19218253	    -12.63985452	     18.32059140	     19.46526122	     -2.07762131	      3.38472892	     -5.14293514	     -6.49575052	     -8.39745048	     -9.59385272	     19.93715109	     89.95437384	      0.00000000	      0.00000000	     -1.87756286	      9.85390157	     21.51517143	     47.46810469	     89.95437384	      0.00000000	      0.00000000
      0.63000000	     -1.68928253	     -2.81592010	      5.68710564	     -0.21550111	      0.88890753	     -1.44499436	     14.96721207	      4.02642335	    -15.08792001	    -25.70216353	     -0.44858738	      8.36750965	     -7.31503371	      5.14908271	     16.07775101	      8.99232899	      5.22601289	    -69.10731539	     -1.20615019	    -11.12919326	     18.55907241	     19.10307256	     -2.27490859	      2.98056591	     -4.63399353	     -5.84316574	     -8.46441185	     -9.52560958	     20.69115916	     89.95437384	      0.00000000	      0.00000000	     -2.51290260	      9.64149827	     21.46220472	     46.50543571	     89.95437384	      0.00000000	      0.00000000
      0.64000000	     -1.63593707	     -2.72479818	      5.12778788	     -0.20356335	      0.89003344	     -1.44428744	     13.77673158	      4.19272192	    -14.58392401	    -25.21494447	     -0.44008380	      8.82106064	     -6.63733278	      4.84600130	     17.37433367	      8.81805856	      5.68657628	    -69.68435108	     -1.21622136	     -7.77640418	     18.71679597	     18.70290885	     -2.34568985	      2.91976221	     -3.96195445	     -5.38487913	     -8.67092387	     -9.63482997	     21.74930326	     89.95437384	      0.00000000	      0.00000000	     -3.01196783	      9.30279238	     21.34171527	     45.20903600	     89.95437384	      0.00000000	      0.00000000
      0.65000000	     -1.53726866	     -2.56716060	      4.57230020	     -0.19184888	      0.89099029	     -1.44334828	     12.58229219	      4.26131769	    -14.17613765	    -24.76715634	     -0.43226842	      9.44042916	     -6.07633189	      4.52489357	     18.65018903	      8.72208173	      6.32088530	    -70.02298310	     -1.22213161	     -5.24477240	     18.65671044	     18.56436383	     -2.51553109	      2.74316382	     -3.33212732	     -4.90603565	     -8.83198499	     -9.63596051	     22.89929931	     89.95437384	      0.00000000	      0.00000000	     -3.58525015	      9.08008497	     21.13000448	     44.10835265	     89.95437384	      0.00000000	      0.00000000
      0.66000000	     -1.53715233	     -2.29117258	      4.16527013	     -0.18044708	      0.89172358	     -1.44265107	     11.56464895	      4.06488502	    -14.21016527	    -24.47004402	     -0.42708284	      9.73813843	     -5.85102560	      4.37489543	     20.11047276	      8.53012385	      6.97095338	    -70.11380658	     -1.22371678	     -3.99365037	     18.70502821	     18.28541210	     -2.59705184	      2.40766742	     -2.96029923	     -4.19904258	     -8.92113043	     -9.60455338	     23.78659601	     89.95437384	      0.00000000	      0.00000000	     -4.23565652	      8.88549294	     20.98266493	     43.15082089	     89.95437384	      0.00000000	      0.00000000
      0.67000000	     -1.31529387	     -2.11389965	      3.55709304	     -0.16849263	      0.89266489	     -1.44212659	     10.17200014	      4.04524537	    -13.74302637	    -24.00571375	     -0.41897874	     10.40608800	     -4.52358416	      3.63268688	     21.00596242	      8.25567848	      7.43822357	    -69.81558442	     -1.21851182	     -1.05399163	     18.54500695	     19.37843899	     -2.85844719	      2.28012710	     -2.14261629	     -3.97595385	     -9.15562320	     -9.80435769	     25.34255539	     89.95437384	      0.00000000	      0.00000000	     -4.60539555	      8.61816196	     20.55614083	     41.71984482	     89.95437384	      0.00000000	      0.00000000
      0.68000000	     -1.43023028	     -1.92327767	      3.20478459	     -0.15748255	      0.89290970	     -1.44152710	      9.32702459	      3.91442120	    -13.82275888	    -23.71428462	     -0.41389235	     10.69769040	     -4.38071171	      3.49685257	     22.56013956	      8.05495898	      7.85051390	    -69.41750618	     -1.21156404	     -0.02362383	     18.52305359	     19.07201909	     -2.84593677	      2.01065120	     -1.82073608	     -3.29495821	     -9.26167985	     -9.76445488	     26.33538756	     89.95437384	      0.00000000	      0.00000000	     -5.19636843	      8.40855964	     20.46232880	     40.78710035	     89.95437384	      0.00000000	      0.00000000
